<svg id="Capa_1" data-name="Capa 1" xmlns="http://www.w3.org/2000/svg" viewBox="0 0 234 213.35"><defs><style>.cls-1{fill:#4c5b62;}.cls-2{fill:#92989d;}.cls-3{fill:#2e434a;}.cls-4{fill:#d87f34;}.cls-5{fill:#e4c06d;}.cls-6{fill:#d8a725;}.cls-7{fill:#b86325;}.cls-8{fill:none;}</style></defs><title>LogoSolo</title><path class="cls-1" d="M406.06,335.51c-33.73,15.87-66.74,33.09-101,48.82h.28c-.5,36.19.58,72.37-.25,109a.41.41,0,0,1,.26.2h0a.56.56,0,0,1,.15.1l.07.05.17.12h1.35Q321.57,487,335.92,480l70.42-113.64q0-15.21.09-30.44C406.3,335.8,406.18,335.66,406.06,335.51Z" transform="translate(-189.41 -289.04)"/><path class="cls-2" d="M307.05,493.76c-.68-36.51-.68-72.65.22-109.22-2.25-1.3-4.5-2.16-6.75-3.46l-1.35-1.3c-32.39-16-63.43-32.51-95-48.75l.05.59c0,15.52,0,31.13-.12,46.74l83.1,105.25c6.31,3.12,12.52,6.46,18.5,10.15Z" transform="translate(-189.41 -289.04)"/><path class="cls-3" d="M406.26,335.76c-13-6-25.9-12.05-38.8-18.16s-26-12.33-39-18.44q-10.87-5.1-21.8-10.12h-.05q-20.06,8.31-40.2,16.46T226.3,321.73l-22.43,9v0c21.53,11.43,42.82,22.14,65.34,34,12.7,6.88,25.39,13,37.75,20" transform="translate(-189.41 -289.04)"/><path class="cls-4" d="M356.52,502.21h0L355.63,415,318.89,393.7V483l36.94,19Z" transform="translate(-189.41 -289.04)"/><path class="cls-5" d="M423.3,375.9a.4.4,0,0,1-.15-.1h0a.36.36,0,0,1-.29,0,24.6,24.6,0,0,1-2.15-1.26.37.37,0,0,1-.18-.22c-18,10.5-48.83,29.23-65.3,39h-.9l.9,88.76.13,0a3.92,3.92,0,0,0,.49.13l.13,0H356a.87.87,0,0,0,.23,0c4.94-3.06,22.06-13.49,24.5-14.91l0,0a.39.39,0,0,1,.2-.06V463.53l21.23-12.35v23.95a5,5,0,0,1,.53-.12h0c3.12-1.83,17.58-10.15,19.57-11.24h.22l.88-87.8A.31.31,0,0,1,423.3,375.9Z" transform="translate(-189.41 -289.04)"/><path class="cls-4" d="M403.07,475h.05V449.86L381.78,463l20.7,12.19A3.9,3.9,0,0,1,403.07,475Z" transform="translate(-189.41 -289.04)"/><polyline class="cls-4" points="210.27 147.1 210.72 127.3 190.21 137.92 189.77 158.21 189.74 158.41 210.24 147.31"/><path class="cls-6" d="M388.46,353.69l-68.69,39.54-.88.51,35.55,20.48a.44.44,0,0,1,.41-.33,9,9,0,0,0,3.16-1.15c1.15-.59,2.25-1.24,3.38-1.86a52.75,52.75,0,0,1,5.06-2.49c17.77-10.35,42-24.58,55.91-32.35h1.06C411.86,368.64,400.3,361.82,388.46,353.69Z" transform="translate(-189.41 -289.04)"/><path class="cls-7" d="M380.18,427l-.33.17-.45,20.28,0,.21,20.51-11.11,0-.2v0C393.26,433.28,386.64,430.22,380.18,427Z" transform="translate(-189.41 -289.04)"/><path class="cls-8" d="M395.82,334.89c-26.09,14.27-53,26.09-79.53,39.38-2.9,1.47-5.79,3-8.77,4.76" transform="translate(-189.41 -289.04)"/><path class="cls-8" d="M395.82,334.89q-17.42-8-34.69-16.31c-11.62-5.52-23.22-11.07-34.86-16.55q-9.74-4.59-19.5-9.09h0q-17.93,7.5-35.91,14.85T235,322.42l-20,8.16h0c19.25,10.26,38.29,19.88,58.43,30.53,11.36,6.18,22.71,11.67,33.76,17.93" transform="translate(-189.41 -289.04)"/><path class="cls-8" d="M386.42,333.9c-23.38,12.79-47.51,23.38-71.26,35.29-2.6,1.32-5.2,2.65-7.87,4.27" transform="translate(-189.41 -289.04)"/><path class="cls-8" d="M386.42,333.9c-10.4-4.79-20.75-9.69-31.09-14.61s-20.8-9.92-31.23-14.83q-8.73-4.11-17.48-8.14h0q-16.06,6.72-32.18,13.31t-32.13,13.1l-18,7.32v0c17.25,9.2,34.31,17.82,52.36,27.36,10.17,5.54,20.35,10.46,30.25,16.07" transform="translate(-189.41 -289.04)"/><path class="cls-8" d="M378.16,333.12c-21,11.49-42.67,21-64,31.69-2.33,1.19-4.67,2.38-7.06,3.84" transform="translate(-189.41 -289.04)"/><path class="cls-8" d="M378.16,333.12q-14-6.47-27.92-13.12t-28.05-13.32q-7.83-3.69-15.69-7.32h0q-14.43,6-28.91,11.95t-28.85,11.77l-16.13,6.57v0c15.49,8.27,30.82,16,47,24.57,9.13,5,18.27,9.4,27.16,14.44" transform="translate(-189.41 -289.04)"/><path class="cls-8" d="M370.07,332.87c-18.58,10.17-37.76,18.59-56.65,28.05-2.06,1.05-4.13,2.11-6.25,3.4" transform="translate(-189.41 -289.04)"/><path class="cls-8" d="M370.07,332.87c-8.27-3.81-16.49-7.71-24.71-11.61s-16.54-7.89-24.83-11.8q-6.93-3.25-13.89-6.47h0q-12.76,5.34-25.58,10.58T255.49,324l-14.28,5.81h0c13.71,7.32,27.28,14.17,41.63,21.75,8.08,4.4,16.17,8.32,24,12.78" transform="translate(-189.41 -289.04)"/><path class="cls-8" d="M360.54,333c-15.84,8.66-32.18,15.83-48.27,23.9-1.76.89-3.52,1.79-5.33,2.89" transform="translate(-189.41 -289.04)"/><path class="cls-8" d="M360.54,333c-7.05-3.25-14.06-6.57-21.06-9.9s-14.09-6.72-21.15-10q-5.91-2.78-11.84-5.51h0q-10.87,4.55-21.8,9t-21.76,8.88l-12.16,4.95h0c11.69,6.24,23.24,12.07,35.47,18.53,6.89,3.76,13.78,7.09,20.49,10.89" transform="translate(-189.41 -289.04)"/><path class="cls-8" d="M352.53,333.08C339,340.48,325,346.61,311.3,353.5c-1.5.76-3,1.53-4.55,2.46" transform="translate(-189.41 -289.04)"/><path class="cls-8" d="M352.53,333.08q-9-4.15-18-8.45c-6-2.86-12-5.74-18.07-8.58-3.36-1.58-6.73-3.16-10.1-4.71h0q-9.3,3.89-18.62,7.7t-18.58,7.58l-10.39,4.23h0c10,5.33,19.85,10.31,30.29,15.83,5.88,3.2,11.77,6.05,17.49,9.29" transform="translate(-189.41 -289.04)"/><path class="cls-8" d="M344.81,333c-11.1,6.08-22.56,11.1-33.84,16.76-1.23.63-2.46,1.26-3.73,2" transform="translate(-189.41 -289.04)"/><path class="cls-8" d="M344.81,333q-7.41-3.42-14.76-6.94c-4.94-2.35-9.88-4.71-14.83-7q-4.14-1.95-8.3-3.87h0q-7.64,3.19-15.29,6.32t-15.25,6.23l-8.53,3.47h0c8.19,4.37,16.29,8.46,24.86,13,4.83,2.63,9.66,5,14.37,7.64" transform="translate(-189.41 -289.04)"/><path class="cls-8" d="M337.49,333.27c-9,4.91-18.23,9-27.35,13.55-1,.5-2,1-3,1.63" transform="translate(-189.41 -289.04)"/><path class="cls-8" d="M337.49,333.27q-6-2.76-11.93-5.6c-4-1.9-8-3.81-12-5.69-2.23-1.05-4.46-2.1-6.7-3.13h0q-6.17,2.58-12.35,5.11t-12.33,5l-6.89,2.8h0c6.62,3.53,13.17,6.84,20.1,10.5,3.9,2.12,7.8,4,11.6,6.16" transform="translate(-189.41 -289.04)"/><path class="cls-8" d="M331,333.18c-7,3.82-14.22,7-21.33,10.56-.78.4-1.56.79-2.36,1.28" transform="translate(-189.41 -289.04)"/><path class="cls-8" d="M331,333.18c-3.11-1.44-6.21-2.91-9.31-4.38s-6.23-3-9.35-4.44c-1.74-.82-3.48-1.64-5.23-2.44h0q-4.81,2-9.64,4l-9.62,3.92L282.49,332h0c5.17,2.75,10.28,5.33,15.68,8.19,3,1.66,6.1,3.13,9.06,4.81" transform="translate(-189.41 -289.04)"/><path class="cls-8" d="M324.32,333c-5,2.69-10.19,4.91-15.28,7.42-.55.27-1.11.55-1.68.89" transform="translate(-189.41 -289.04)"/><path class="cls-8" d="M324.32,333c-2.23-1-4.45-2-6.67-3.07L311,326.78l-3.75-1.71h0l-6.9,2.8-6.89,2.75-3.85,1.54h0c3.7,1.93,7.36,3.74,11.22,5.74,2.19,1.17,4.37,2.2,6.49,3.38" transform="translate(-189.41 -289.04)"/><path class="cls-8" d="M318.39,332.88c-3.26,1.62-6.62,3-9.93,4.47-.36.17-.72.33-1.1.54" transform="translate(-189.41 -289.04)"/><path class="cls-8" d="M318.39,332.88,314.06,331l-4.35-1.88-2.44-1h0l-4.49,1.68-4.47,1.66-2.5.93h0c2.4,1.16,4.78,2.26,7.29,3.46,1.42.71,2.83,1.33,4.21,2" transform="translate(-189.41 -289.04)"/><path class="cls-8" d="M312.87,332.68c-1.69.84-3.44,1.54-5.17,2.33a6,6,0,0,0-.57.28" transform="translate(-189.41 -289.04)"/><path class="cls-8" d="M312.87,332.68l-2.25-1-2.27-1-1.27-.53h0l-2.33.88-2.33.86-1.31.48h0c1.25.61,2.49,1.18,3.8,1.81.74.36,1.48.69,2.2,1.06" transform="translate(-189.41 -289.04)"/><path class="cls-4" d="M256.31,501h0l.89-87.25,36.74-21.25v89.34l-36.94,19Z" transform="translate(-189.41 -289.04)"/><path class="cls-5" d="M189.53,374.67a.56.56,0,0,0,.15-.1h0a.37.37,0,0,0,.29,0,24.18,24.18,0,0,0,2.15-1.26.36.36,0,0,0,.18-.22c18,10.49,48.83,29.23,65.3,39.05h.9l-.89,88.76-.14,0-.49.14-.13,0s-.17.05-.05,0a.86.86,0,0,1-.23,0c-4.94-3.06-22.06-13.5-24.49-14.92l0,0a.66.66,0,0,0-.2-.06V462.29l-21.23-12.35v23.95a3.33,3.33,0,0,0-.53-.11h0c-3.12-1.83-17.58-10.14-19.57-11.23h-.22l-.88-87.8A.31.31,0,0,0,189.53,374.67Z" transform="translate(-189.41 -289.04)"/><path class="cls-4" d="M209.76,473.77h0V448.63l21.33,13.09-20.7,12.2A3,3,0,0,0,209.76,473.77Z" transform="translate(-189.41 -289.04)"/><polyline class="cls-4" points="23.73 145.87 23.29 126.06 43.79 136.69 44.24 156.97 44.27 157.18 23.76 146.07"/><path class="cls-6" d="M224.38,352.45,293.06,392l.88.51L258.39,413a.43.43,0,0,0-.4-.32,8.78,8.78,0,0,1-3.17-1.16c-1.15-.58-2.25-1.23-3.38-1.85a52.75,52.75,0,0,0-5.06-2.49c-17.76-10.35-42-24.59-55.91-32.36h-1.06C201,367.41,212.53,360.59,224.38,352.45Z" transform="translate(-189.41 -289.04)"/><path class="cls-7" d="M232.66,425.77l.32.17.45,20.28,0,.21L213,435.32l0-.21v0C219.57,432,226.19,429,232.66,425.77Z" transform="translate(-189.41 -289.04)"/></svg>